<svg width="22" height="15" viewBox="0 0 22 15" fill="none" xmlns="http://www.w3.org/2000/svg">
<ellipse cx="20.6149" cy="1.32937" rx="1.32937" ry="1.28844" transform="rotate(90 20.6149 1.32937)" fill="#5E98AE"/>
<ellipse cx="20.6149" cy="7.09011" rx="1.32937" ry="1.28844" transform="rotate(90 20.6149 7.09011)" fill="#5E98AE"/>
<ellipse cx="20.6149" cy="12.8506" rx="1.32937" ry="1.28844" transform="rotate(90 20.6149 12.8506)" fill="#5E98AE"/>
<ellipse cx="14.172" cy="1.32937" rx="1.32937" ry="1.28844" transform="rotate(90 14.172 1.32937)" fill="#5E98AE"/>
<ellipse cx="14.172" cy="7.09011" rx="1.32937" ry="1.28844" transform="rotate(90 14.172 7.09011)" fill="#5E98AE"/>
<ellipse cx="14.172" cy="12.8506" rx="1.32937" ry="1.28844" transform="rotate(90 14.172 12.8506)" fill="#5E98AE"/>
<ellipse cx="7.7306" cy="1.32937" rx="1.32937" ry="1.28844" transform="rotate(90 7.7306 1.32937)" fill="#5E98AE"/>
<ellipse cx="7.7306" cy="7.09011" rx="1.32937" ry="1.28844" transform="rotate(90 7.7306 7.09011)" fill="#5E98AE"/>
<ellipse cx="7.7306" cy="12.8506" rx="1.32937" ry="1.28844" transform="rotate(90 7.7306 12.8506)" fill="#5E98AE"/>
<ellipse cx="1.28822" cy="1.32937" rx="1.32937" ry="1.28844" transform="rotate(90 1.28822 1.32937)" fill="#5E98AE"/>
<ellipse cx="1.28822" cy="7.09011" rx="1.32937" ry="1.28844" transform="rotate(90 1.28822 7.09011)" fill="#5E98AE"/>
<ellipse cx="1.28822" cy="12.8506" rx="1.32937" ry="1.28844" transform="rotate(90 1.28822 12.8506)" fill="#5E98AE"/>
</svg>
