<svg width="95" height="95" viewBox="0 0 95 95" fill="none" xmlns="http://www.w3.org/2000/svg"><g clip-path="url(#a)" fill="#333"><path d="M56.272 71.673A3.804 3.804 0 0 1 52.5 75.94h-10a3.804 3.804 0 0 1-3.771-4.266c.6-4.91-.335-9.878-2.785-14.305a.948.948 0 0 1 .325-1.253 12.84 12.84 0 0 0 1.813-1.415.952.952 0 0 1 1.237-.061c1.738 1.35 3.682 2.229 5.698 2.623a.94.94 0 0 1 .63.442c.302.51.626 1.01.972 1.495a1.078 1.078 0 0 0 1.762.002c.343-.482.664-.976.964-1.48a.956.956 0 0 1 .638-.455c1.982-.386 3.935-1.252 5.7-2.626a.952.952 0 0 1 1.237.061 12.87 12.87 0 0 0 1.822 1.421.943.943 0 0 1 .314 1.247 23.51 23.51 0 0 0-2.784 14.304Z"/><path d="M68.36 36.576a14.488 14.488 0 0 0-1.624-.313.954.954 0 0 1 .246-1.893c1.583.193 3.246.689 4.73 1.437a.946.946 0 0 0 1.367-.76c.256-2.978-.824-5.82-2.815-7.717-2.498-2.382-6.21-3.154-9.628-2.051-6.512-8.4-19.885-8.18-26.27 0-6.556-2.115-13.049 2.703-12.445 9.765a.947.947 0 0 0 1.368.763 14.665 14.665 0 0 1 4.677-1.43.949.949 0 0 1 1.073.914.947.947 0 0 1-.83.979c-2.311.3-4.832 1.288-6.49 2.902-6.885 6.483.227 20.09 11.017 16.55a11.042 11.042 0 0 0 5.772-4.484c3.204 3.77 7.899 5.277 12.444 3.813.23-.078.771-.272.948-.36 1.084-.453 2.409-1.29 3.421-2.235.429-.388.819-.807 1.172-1.217 2.738 4.348 8.623 6.407 13.524 4.075 7.603-3.623 8.902-16.052-1.657-18.738ZM48.1 33.211c.22-.328 2.243-3.205 5.886-3.205 2.032 0 3.947.955 5.191 2.318a.949.949 0 1 1-1.4 1.282c-.93-1.01-2.325-1.7-3.79-1.7-2.702 0-4.24 2.262-4.305 2.36A.95.95 0 0 1 48.1 33.21Zm-15.39 8.197c1.215-2.882 4.068-4.728 7.1-4.599 2.612.113 4.994 1.674 6.217 4.074a.95.95 0 1 1-1.693.863c-.912-1.791-2.677-2.956-4.605-3.04-2.244-.093-4.36 1.287-5.268 3.441a.95.95 0 0 1-1.75-.739Z"/></g><defs><clipPath id="a"><path fill="#fff" d="M19 19h57v57H19z"/></clipPath></defs></svg>